<svg xmlns="http://www.w3.org/2000/svg" xmlns:xlink="http://www.w3.org/1999/xlink" width="180" zoomAndPan="magnify" viewBox="0 0 135 135.000003" height="180" preserveAspectRatio="xMidYMid meet" version="1.0"><defs><filter x="0%" y="0%" width="100%" height="100%" id="6b45be9e2d"><feColorMatrix values="0 0 0 0 1 0 0 0 0 1 0 0 0 0 1 0 0 0 1 0" color-interpolation-filters="sRGB"/></filter><mask id="15c41443fe"><g filter="url(#6b45be9e2d)"><rect x="-13.5" width="162" fill="#000000" y="-13.5" height="162.000004" fill-opacity="0.8"/></g></mask><clipPath id="2835734723"><path d="M 0.144531 0.0078125 L 21 0.0078125 L 21 30.265625 L 0.144531 30.265625 Z M 0.144531 0.0078125 " clip-rule="nonzero"/></clipPath><clipPath id="7f04be9bfa"><rect x="0" width="22" y="0" height="31"/></clipPath><mask id="2016ab45e8"><g filter="url(#6b45be9e2d)"><rect x="-13.5" width="162" fill="#000000" y="-13.5" height="162.000004" fill-opacity="0.8"/></g></mask><clipPath id="0d6b8e11c4"><path d="M 0.652344 1 L 6.609375 1 L 6.609375 11.664062 L 0.652344 11.664062 Z M 0.652344 1 " clip-rule="nonzero"/></clipPath><clipPath id="9a5b8d08af"><rect x="0" width="7" y="0" height="12"/></clipPath><mask id="0b919699fe"><g filter="url(#6b45be9e2d)"><rect x="-13.5" width="162" fill="#000000" y="-13.5" height="162.000004" fill-opacity="0.6"/></g></mask><clipPath id="84e1feffde"><path d="M 0.351562 0.890625 L 32.992188 0.890625 L 32.992188 31.863281 L 0.351562 31.863281 Z M 0.351562 0.890625 " clip-rule="nonzero"/></clipPath><clipPath id="733d7670f7"><rect x="0" width="33" y="0" height="32"/></clipPath><mask id="5b2a4a25df"><g filter="url(#6b45be9e2d)"><rect x="-13.5" width="162" fill="#000000" y="-13.5" height="162.000004" fill-opacity="0.8"/></g></mask><clipPath id="e6a709d829"><path d="M 0.207031 0.238281 L 19.503906 0.238281 L 19.503906 16 L 0.207031 16 Z M 0.207031 0.238281 " clip-rule="nonzero"/></clipPath><clipPath id="ec8ec0fd98"><rect x="0" width="20" y="0" height="17"/></clipPath><clipPath id="8a9552ce8c"><path d="M 14 54 L 127 54 L 127 121.351562 L 14 121.351562 Z M 14 54 " clip-rule="nonzero"/></clipPath><clipPath id="06785fd592"><path d="M 18 59 L 119 59 L 119 121.351562 L 18 121.351562 Z M 18 59 " clip-rule="nonzero"/></clipPath><mask id="37ae9a8cfa"><g filter="url(#6b45be9e2d)"><rect x="-13.5" width="162" fill="#000000" y="-13.5" height="162.000004" fill-opacity="0.8"/></g></mask><clipPath id="29d9f73ad4"><path d="M 0.707031 0.371094 L 25 0.371094 L 25 16 L 0.707031 16 Z M 0.707031 0.371094 " clip-rule="nonzero"/></clipPath><clipPath id="e23c688069"><rect x="0" width="26" y="0" height="17"/></clipPath><mask id="0376c7db10"><g filter="url(#6b45be9e2d)"><rect x="-13.5" width="162" fill="#000000" y="-13.5" height="162.000004" fill-opacity="0.6"/></g></mask><clipPath id="d957ad4d54"><path d="M 0.519531 0.00390625 L 10 0.00390625 L 10 20.730469 L 0.519531 20.730469 Z M 0.519531 0.00390625 " clip-rule="nonzero"/></clipPath><clipPath id="299f80717e"><rect x="0" width="11" y="0" height="21"/></clipPath><mask id="e2a668b76b"><g filter="url(#6b45be9e2d)"><rect x="-13.5" width="162" fill="#000000" y="-13.5" height="162.000004" fill-opacity="0.6"/></g></mask><clipPath id="3c187cbccb"><path d="M 1 0 L 12.941406 0 L 12.941406 18.820312 L 1 18.820312 Z M 1 0 " clip-rule="nonzero"/></clipPath><clipPath id="ec171ae03a"><rect x="0" width="13" y="0" height="19"/></clipPath></defs><path fill="#0cc0df" d="M 72.117188 21.53125 C 65.355469 15.078125 56.226562 11.839844 48.296875 17.683594 C 48.164062 18.058594 48.085938 18.429688 47.996094 18.8125 C 41.109375 47.191406 26.890625 98.667969 6.230469 118.554688 C 23.246094 124.28125 34.449219 117.207031 41.332031 105.664062 C 43.636719 101.257812 46.003906 94.625 48.214844 88.90625 C 55.671875 68.539062 65.667969 41.726562 72.117188 21.53125 Z M 72.117188 21.53125 " fill-opacity="1" fill-rule="nonzero"/><path fill="#5ce1e6" d="M 48.296875 17.683594 C 48.285156 17.683594 48.285156 17.683594 48.296875 17.683594 C 48.15625 18.058594 48.539062 18.46875 48.40625 18.84375 C 38.304688 46.1875 27.113281 97.953125 6.21875 118.566406 C 19.535156 122.128906 32.527344 114.1875 38.675781 102.644531 C 43.476562 95.339844 66.925781 21.148438 68.023438 18.148438 C 68.011719 18.136719 53.21875 13.859375 48.296875 17.683594 Z M 48.296875 17.683594 " fill-opacity="1" fill-rule="nonzero"/><path fill="#38b6ff" d="M 48.296875 17.683594 C 48.296875 17.683594 48.878906 18.441406 48.871094 18.441406 C 48.871094 18.441406 48.328125 17.695312 48.328125 17.695312 C 48.195312 18.066406 48.4375 18.75 48.417969 19.144531 C 47.28125 41.003906 39.84375 90.878906 6.21875 118.554688 C 20.046875 121.292969 33.28125 106.761719 41.121094 89.601562 C 49.273438 70.039062 57.765625 36.9375 64.058594 17.292969 C 63.976562 17.273438 51.730469 15.058594 48.296875 17.683594 Z M 48.296875 17.683594 " fill-opacity="1" fill-rule="nonzero"/><path fill="#004aad" d="M 53.148438 15.53125 C 50.390625 16.136719 49.523438 16.839844 48.296875 17.675781 C 44.773438 27.445312 41.34375 38.667969 38.152344 48.78125 C 30.152344 72.050781 23.398438 100.089844 6.230469 118.546875 C 28.28125 111.953125 53.21875 15.519531 53.148438 15.53125 Z M 53.148438 15.53125 " fill-opacity="1" fill-rule="nonzero"/><path fill="#5271ff" d="M 53.105469 15.703125 C 52.65625 18.300781 27.042969 111.492188 6.320312 118.535156 C 40.074219 109.738281 51.253906 39.261719 59.054688 15.5 C 58.703125 16.578125 56.003906 15.117188 53.105469 15.703125 Z M 53.105469 15.703125 " fill-opacity="1" fill-rule="nonzero"/><g mask="url(#15c41443fe)"><g transform="matrix(1, 0, 0, 1, 48, 15)"><g clip-path="url(#7f04be9bfa)"><g clip-path="url(#2835734723)"><path fill="#0cc0df" d="M 20.917969 16.402344 C 20.917969 16.402344 20.90625 16.421875 20.898438 16.460938 C 20.878906 16.523438 20.835938 16.632812 20.785156 16.785156 C 20.214844 18.433594 17.878906 25.109375 15.988281 30.179688 C 15.0625 -0.0625 0.296875 2.675781 0.296875 2.675781 C 0.457031 2.5625 0.609375 2.453125 0.757812 2.34375 C 1.242188 2.011719 1.707031 1.730469 2.148438 1.488281 C 3.847656 0.53125 5.15625 0.160156 5.449219 0.078125 C 5.460938 0.078125 5.480469 0.0703125 5.480469 0.0703125 C 5.488281 0.0703125 5.5 0.0585938 5.511719 0.0585938 L 9.726562 1.386719 L 10.621094 1.667969 L 12.28125 2.976562 L 15.644531 5.632812 L 18.964844 8.25 L 19.207031 9.265625 Z M 20.917969 16.402344 " fill-opacity="1" fill-rule="nonzero"/></g></g></g></g><path fill="#38b6ff" d="M 48.296875 17.675781 C 48.308594 17.664062 48.347656 17.636719 48.425781 17.59375 C 48.378906 17.625 48.335938 17.65625 48.296875 17.675781 Z M 48.296875 17.675781 " fill-opacity="1" fill-rule="nonzero"/><path fill="#5271ff" d="M 131.566406 36.625 C 115.019531 65.265625 84.296875 85.636719 48.1875 88.90625 C 46.738281 92.902344 45.148438 97.050781 43.386719 101.125 C 75.941406 99.574219 120.3125 73.78125 131.566406 36.625 C 131.585938 36.585938 131.566406 36.625 131.566406 36.625 Z M 131.566406 36.625 " fill-opacity="1" fill-rule="nonzero"/><path fill="#38b6ff" d="M 131.566406 36.625 C 115.019531 65.265625 84.296875 85.636719 48.1875 88.90625 C 46.738281 92.902344 46.695312 92.851562 45.238281 96.71875 C 77.792969 95.167969 115.292969 73.933594 131.566406 36.625 C 131.585938 36.585938 131.566406 36.625 131.566406 36.625 Z M 131.566406 36.625 " fill-opacity="1" fill-rule="nonzero"/><path fill="#5ce1e6" d="M 48.066406 88.949219 C 46.617188 92.941406 47.492188 90.839844 46.265625 94 C 78.820312 92.449219 114.488281 71.125 131.566406 36.625 C 115.019531 65.265625 84.183594 85.675781 48.066406 88.949219 Z M 48.066406 88.949219 " fill-opacity="1" fill-rule="nonzero"/><path fill="#0cc0df" d="M 108.429688 64.039062 C 107.332031 64.957031 106.214844 65.851562 105.078125 66.726562 C 97.289062 72.726562 88.59375 77.707031 79.214844 81.460938 C 78.667969 81.683594 78.125 81.894531 77.582031 82.105469 C 75.679688 82.828125 73.75 83.511719 71.796875 84.136719 C 71.484375 84.238281 71.171875 84.328125 70.871094 84.429688 C 64.027344 86.550781 56.871094 88.03125 49.496094 88.796875 C 49.070312 88.835938 48.648438 88.886719 48.226562 88.917969 C 48.15625 88.925781 48.09375 88.925781 48.023438 88.9375 C 47.621094 90.054688 47.269531 90.457031 46.929688 90.546875 L 46.929688 91.675781 C 47.019531 91.664062 47.097656 91.664062 47.191406 91.65625 C 48.035156 91.585938 48.890625 91.503906 49.734375 91.414062 C 57.3125 90.589844 65.105469 88.847656 72.773438 86.21875 C 73.023438 86.128906 73.285156 86.050781 73.535156 85.957031 C 75.46875 85.285156 77.390625 84.550781 79.304688 83.753906 C 79.949219 83.492188 80.59375 83.210938 81.226562 82.941406 C 89.78125 79.214844 98.042969 74.355469 105.539062 68.40625 C 106.820312 67.402344 108.066406 66.355469 109.292969 65.277344 C 118.3125 57.398438 126.039062 47.828125 131.566406 36.65625 C 125.585938 46.980469 117.726562 56.261719 108.429688 64.039062 Z M 108.429688 64.039062 " fill-opacity="1" fill-rule="nonzero"/><path fill="#004aad" d="M 131.566406 36.625 C 127.601562 50.070312 120.878906 62.015625 112.183594 72.03125 C 111.308594 73.035156 110.410156 74.03125 109.496094 75 C 109.273438 75.230469 109.0625 75.460938 108.839844 75.683594 C 108.246094 76.308594 107.632812 76.910156 107.03125 77.515625 C 102.210938 82.265625 96.894531 86.480469 91.21875 90.125 C 90.191406 90.789062 89.144531 91.421875 88.089844 92.046875 C 85.300781 93.6875 82.445312 95.199219 79.503906 96.554688 C 79.234375 96.675781 78.972656 96.808594 78.699219 96.929688 C 68.90625 101.367188 58.351562 104.234375 47.453125 105.3125 C 45.410156 105.511719 43.367188 105.644531 41.300781 105.714844 C 41.3125 105.695312 41.324219 105.664062 41.332031 105.644531 C 42.046875 104.144531 42.730469 102.632812 43.386719 101.105469 C 43.40625 101.105469 43.414062 101.105469 43.4375 101.105469 C 45.21875 101.023438 47.039062 100.863281 48.878906 100.632812 C 57.90625 99.515625 67.597656 96.707031 77.109375 92.460938 C 77.421875 92.320312 77.734375 92.179688 78.046875 92.039062 C 80.261719 91.03125 82.453125 89.945312 84.628906 88.777344 C 85.523438 88.292969 86.417969 87.8125 87.304688 87.296875 C 93.714844 83.652344 99.875 79.378906 105.511719 74.527344 C 105.984375 74.125 106.457031 73.710938 106.917969 73.289062 C 107.371094 72.886719 107.835938 72.472656 108.277344 72.050781 C 109.3125 71.09375 110.332031 70.117188 111.316406 69.121094 C 120.585938 59.84375 127.871094 48.851562 131.566406 36.625 Z M 131.566406 36.625 " fill-opacity="1" fill-rule="nonzero"/><g mask="url(#2016ab45e8)"><g transform="matrix(1, 0, 0, 1, 103, 66)"><g clip-path="url(#9a5b8d08af)"><g clip-path="url(#0d6b8e11c4)"><path fill="#0cc0df" d="M 6.496094 9.007812 C 6.273438 9.242188 5.839844 9.695312 5.839844 9.695312 C 5.246094 10.316406 4.632812 10.921875 4.03125 11.523438 C 3.890625 11.503906 3.796875 11.484375 3.796875 11.484375 L 2.511719 8.527344 L 0.960938 4.984375 L 1.191406 3.421875 L 1.523438 1.140625 L 1.523438 1.117188 C 1.523438 1.117188 1.523438 1.117188 1.535156 1.128906 C 1.605469 1.179688 2.066406 1.5 2.730469 2.214844 C 3.4375 2.992188 4.363281 4.21875 5.277344 6.058594 C 5.691406 6.894531 6.101562 7.871094 6.496094 8.980469 C 6.496094 8.988281 6.496094 9 6.496094 9.007812 Z M 6.496094 9.007812 " fill-opacity="1" fill-rule="nonzero"/></g></g></g></g><path fill="#004aad" d="M 108.1875 77.40625 C 103.707031 69.394531 97.339844 57.71875 90.261719 46.589844 C 89.527344 45.429688 88.785156 44.285156 88.027344 43.148438 C 83.269531 35.921875 78.257812 29.128906 73.304688 23.976562 C 69.300781 19.808594 65.34375 16.707031 61.601562 15.339844 C 60.382812 14.886719 59.1875 14.625 58.027344 14.566406 C 58.097656 14.566406 58.167969 14.554688 58.238281 14.554688 C 65.394531 14.285156 70.667969 14.867188 74.957031 16.75 C 75.890625 17.152344 76.769531 17.625 77.625 18.15625 C 82.351562 21.128906 85.925781 26.117188 89.910156 33.886719 C 97.710938 48.359375 103.085938 63.316406 108.1875 77.394531 C 108.1875 77.382812 108.1875 77.394531 108.1875 77.40625 Z M 108.1875 77.40625 " fill-opacity="1" fill-rule="nonzero"/><path fill="#38b6ff" d="M 48.296875 17.683594 C 48.308594 17.683594 48.308594 17.675781 48.316406 17.675781 C 48.308594 17.675781 48.296875 17.675781 48.296875 17.683594 Z M 48.296875 17.683594 " fill-opacity="1" fill-rule="nonzero"/><path fill="#38b6ff" d="M 123.082031 118.707031 L 123.03125 118.707031 C 108.769531 87.980469 88.59375 52.585938 68.949219 26.257812 C 67.296875 24.367188 65.605469 22.433594 63.644531 20.644531 C 59.921875 17.113281 54.285156 13.910156 49.382812 16.960938 C 80.621094 -1.890625 112.363281 98.015625 123.082031 118.707031 Z M 123.082031 118.707031 " fill-opacity="1" fill-rule="nonzero"/><path fill="#5ce1e6" d="M 123.03125 118.707031 L 123.011719 118.707031 C 122.859375 118.40625 122.710938 118.113281 122.546875 117.8125 C 116.550781 106.257812 108.1875 93.707031 98.144531 80.664062 C 92.417969 73.226562 86.148438 65.621094 79.445312 57.949219 C 78.628906 55.835938 77.933594 54.046875 77.542969 53.050781 C 75.628906 47.714844 73.265625 41.273438 71.253906 36.554688 C 71.0625 36.121094 70.878906 35.699219 70.699219 35.296875 C 70.519531 34.894531 70.347656 34.5 70.164062 34.128906 C 66.039062 25.3125 61.480469 18.085938 56.398438 16.125 C 56.429688 16.136719 56.449219 16.144531 56.480469 16.15625 C 68.171875 17.785156 82.503906 39.230469 95.375 62.972656 C 99.511719 70.589844 103.488281 78.449219 107.191406 85.96875 C 113.550781 98.871094 119.054688 110.765625 123.03125 118.707031 Z M 123.03125 118.707031 " fill-opacity="1" fill-rule="nonzero"/><path fill="#5271ff" d="M 123.121094 118.707031 L 123.082031 118.707031 C 119.589844 111.160156 115.011719 99.847656 109.667969 87.40625 C 107.320312 81.964844 104.835938 76.308594 102.230469 70.660156 C 101.878906 69.898438 101.523438 69.140625 101.171875 68.378906 C 97.046875 59.582031 92.636719 50.886719 88.027344 43.125 C 83.339844 35.226562 78.449219 28.3125 73.464844 23.25 C 68.515625 18.230469 63.472656 15.046875 58.429688 14.554688 C 58.371094 14.546875 58.308594 14.546875 58.238281 14.535156 C 58.308594 14.546875 58.390625 14.546875 58.460938 14.554688 C 59.234375 14.625 59.992188 14.714844 60.734375 14.828125 C 60.746094 14.828125 60.746094 14.828125 60.746094 14.828125 C 65.828125 15.601562 70.257812 17.445312 74.179688 20.089844 C 91.039062 31.441406 98.546875 57.578125 108.175781 77.375 C 108.296875 77.636719 108.429688 77.886719 108.558594 78.148438 C 108.660156 78.421875 108.75 78.691406 108.851562 78.964844 C 109.132812 79.769531 109.425781 80.574219 109.707031 81.390625 C 110.078125 82.464844 110.460938 83.542969 110.835938 84.640625 C 110.863281 84.710938 110.882812 84.792969 110.914062 84.863281 C 115.070312 96.886719 119.21875 109.609375 123.121094 118.707031 Z M 123.121094 118.707031 " fill-opacity="1" fill-rule="nonzero"/><g mask="url(#0b919699fe)"><g transform="matrix(1, 0, 0, 1, 79, 57)"><g clip-path="url(#733d7670f7)"><g clip-path="url(#84e1feffde)"><path fill="#0cc0df" d="M 32.75 31.625 C 32.085938 31.234375 31.390625 30.832031 30.675781 30.40625 C 23.21875 26.039062 13.417969 20.292969 6.371094 16.175781 C 6.363281 16.148438 2.175781 5.398438 0.453125 0.949219 C 9.269531 4.050781 17.3125 8.003906 23.230469 13.660156 C 26.410156 16.699219 28.976562 20.242188 30.707031 24.398438 C 31.078125 25.476562 31.460938 26.554688 31.835938 27.652344 C 31.863281 27.722656 31.882812 27.800781 31.914062 27.871094 C 32.265625 29.078125 32.539062 30.328125 32.75 31.625 Z M 32.75 31.625 " fill-opacity="1" fill-rule="nonzero"/></g></g></g></g><path fill="#0cc0df" d="M 122.558594 117.820312 C 116.558594 106.269531 108.199219 93.71875 98.152344 80.675781 C 92.425781 73.238281 86.15625 65.628906 79.453125 57.960938 C 78.640625 55.847656 77.945312 54.054688 77.550781 53.058594 C 75.640625 47.726562 73.277344 41.285156 71.261719 36.566406 C 71.070312 36.132812 70.890625 35.710938 70.710938 35.308594 C 74.03125 36.707031 80.804688 46.046875 88.460938 58.152344 C 93.492188 66.101562 98.917969 75.25 104.011719 84.117188 C 111.878906 97.804688 118.945312 110.847656 122.558594 117.820312 Z M 122.558594 117.820312 " fill-opacity="1" fill-rule="nonzero"/><g mask="url(#5b2a4a25df)"><g transform="matrix(1, 0, 0, 1, 72, 81)"><g clip-path="url(#ec8ec0fd98)"><g clip-path="url(#e6a709d829)"><path fill="#0cc0df" d="M 19.210938 9.144531 C 15.203125 11.703125 11.015625 14.027344 6.667969 15.957031 C 5.671875 11.097656 3.480469 5.511719 0.289062 3.007812 C 3.117188 2.128906 4.464844 1.566406 7.214844 0.460938 C 10.515625 2.84375 15.910156 6.75 19.210938 9.144531 Z M 19.210938 9.144531 " fill-opacity="1" fill-rule="nonzero"/></g></g></g></g><path fill="#004aad" d="M 127.832031 116.460938 C 127.832031 116.460938 127.832031 116.453125 127.820312 116.453125 C 126.574219 113.976562 124.722656 111.238281 122.699219 108.25 C 107.601562 85.898438 72.492188 52.132812 37.527344 51.21875 C 8.484375 50.703125 1.851562 76.8125 18.09375 92.972656 C 19.039062 93.917969 20.066406 94.824219 21.164062 95.691406 C 20.863281 96.375 19.90625 98.398438 19.28125 99.515625 C 17.773438 98.589844 16.375 97.59375 15.085938 96.546875 C -8.90625 77.113281 5.777344 39.894531 39.84375 43.339844 C 77.332031 46.1875 121.511719 86.925781 127.832031 116.460938 Z M 127.832031 116.460938 " fill-opacity="1" fill-rule="nonzero"/><g clip-path="url(#8a9552ce8c)"><path fill="#38b6ff" d="M 126.453125 117.742188 C 124.1875 119.644531 121.3125 120.921875 118.382812 121.101562 C 115.613281 116.039062 112.355469 111.058594 108.851562 106.386719 C 101.515625 96.625 92.929688 87.738281 83.460938 80.042969 C 68.96875 68.496094 33 52.867188 21.457031 66.484375 C 17.671875 72.414062 19.070312 81.511719 25.300781 86.230469 C 24.605469 87.980469 24.042969 89.167969 23.359375 90.71875 C 13.023438 82.164062 10.265625 64.109375 25.53125 57.398438 C 63.441406 41.394531 113.351562 97.121094 123.171875 118.898438 C 123.203125 118.886719 126.421875 117.75 126.453125 117.742188 Z M 126.453125 117.742188 " fill-opacity="1" fill-rule="nonzero"/></g><g clip-path="url(#06785fd592)"><path fill="#0cc0df" d="M 118.371094 121.09375 C 111.832031 121.535156 105.308594 117.125 101.503906 110.898438 C 91.914062 96.816406 57.09375 62.722656 32.808594 65.277344 C 24.597656 66.445312 19.210938 75.792969 26.691406 82.699219 C 26.609375 82.898438 25.550781 85.617188 25.210938 86.492188 C 18.015625 81.207031 16.898438 72 21.457031 66.496094 C 35.234375 49.648438 69.996094 68.871094 83.441406 80.042969 C 92.910156 87.738281 101.503906 96.625 108.832031 106.386719 C 112.34375 111.046875 115.605469 116.03125 118.371094 121.09375 Z M 118.371094 121.09375 " fill-opacity="1" fill-rule="nonzero"/></g><path fill="#5271ff" d="M 127.832031 116.460938 C 126.773438 117.890625 124.953125 119.128906 123.425781 119.714844 C 113.601562 99.675781 75.699219 55.183594 39.300781 55.203125 C 27.164062 55.214844 15.699219 60.847656 15.035156 72.34375 C 14.550781 78.472656 17.359375 84.277344 21.203125 88.554688 C 21.898438 89.332031 22.632812 90.054688 23.378906 90.71875 C 23.398438 90.738281 23.417969 90.757812 23.4375 90.769531 C 22.242188 93.515625 21.195312 95.699219 21.183594 95.699219 C 20.058594 94.964844 18.980469 94.121094 17.964844 93.175781 C 13.265625 88.816406 9.871094 82.375 9.398438 75.644531 C 8.183594 58.394531 22.382812 50.210938 37.941406 49.46875 C 76.769531 47.625 109.433594 87.367188 122.921875 108.199219 C 125.0625 111.5 126.714844 114.328125 127.84375 116.441406 C 127.832031 116.453125 127.832031 116.460938 127.832031 116.460938 Z M 127.832031 116.460938 " fill-opacity="1" fill-rule="nonzero"/><g mask="url(#37ae9a8cfa)"><g transform="matrix(1, 0, 0, 1, 31, 63)"><g clip-path="url(#e23c688069)"><g clip-path="url(#29d9f73ad4)"><path fill="#0cc0df" d="M 20.910156 15.953125 C 20.910156 15.953125 12.769531 5.902344 0.863281 4.925781 C 1.757812 2.046875 2.339844 0.628906 2.339844 0.628906 L 17.386719 2.507812 L 24.863281 5.136719 Z M 20.910156 15.953125 " fill-opacity="1" fill-rule="nonzero"/></g></g></g></g><g mask="url(#0376c7db10)"><g transform="matrix(1, 0, 0, 1, 40, 86)"><g clip-path="url(#299f80717e)"><g clip-path="url(#d957ad4d54)"><path fill="#0cc0df" d="M 8.871094 14.652344 C 8.527344 16.183594 8.066406 17.761719 7.441406 19.332031 C 5.398438 19.53125 3.355469 19.664062 1.292969 19.746094 C 1.300781 19.722656 1.3125 19.695312 1.324219 19.675781 C 1.132812 19.996094 0.929688 20.308594 0.738281 20.628906 C 3.082031 13.796875 4.792969 7.234375 5.277344 0.210938 L 8.488281 2.183594 C 8.398438 2.425781 8.308594 2.675781 8.207031 2.917969 C 8.628906 2.878906 9.050781 2.835938 9.472656 2.796875 L 9.542969 2.835938 C 9.886719 5.898438 9.867188 10.09375 8.871094 14.652344 Z M 8.871094 14.652344 " fill-opacity="1" fill-rule="nonzero"/></g></g></g></g><path fill="#004aad" d="M 70.710938 35.296875 C 62.394531 17.746094 51.375 15.460938 48.285156 17.683594 C 49.253906 16.6875 51.730469 15.472656 53.5 15.078125 C 61.300781 13.398438 70.164062 14.496094 74.957031 16.738281 C 73.445312 16.488281 71.9375 16.445312 70.699219 16.476562 C 68.917969 16.527344 67.136719 16.355469 65.394531 15.945312 C 64.53125 15.742188 63.554688 15.582031 62.636719 15.601562 C 58.753906 15.683594 57.714844 16.398438 57.714844 16.398438 C 57.714844 16.398438 63.867188 19.820312 70.710938 35.296875 Z M 70.710938 35.296875 " fill-opacity="1" fill-rule="nonzero"/><g mask="url(#e2a668b76b)"><g transform="matrix(1, 0, 0, 1, 14, 81)"><g clip-path="url(#ec171ae03a)"><g clip-path="url(#3c187cbccb)"><path fill="#0cc0df" d="M 12.699219 1.699219 C 12.617188 1.898438 11.5625 4.617188 11.21875 5.492188 C 10.535156 7.203125 10.042969 8.210938 9.386719 9.71875 C 9.410156 9.738281 9.429688 9.757812 9.449219 9.769531 C 8.25 12.515625 7.203125 14.699219 7.195312 14.699219 C 6.894531 15.386719 5.9375 17.40625 5.3125 18.523438 C 3.804688 17.597656 2.402344 16.601562 1.117188 15.554688 C 1.097656 15.546875 1.085938 15.527344 1.085938 15.527344 C 1.085938 15.527344 3.078125 13.320312 3.972656 12.175781 C 4.023438 12.113281 4.074219 12.042969 4.125 11.984375 C 5.253906 10.523438 6.277344 9.035156 7.175781 7.636719 C 7.195312 7.605469 7.203125 7.585938 7.226562 7.554688 C 8.070312 6.214844 8.804688 4.96875 9.417969 3.882812 C 9.480469 3.78125 9.53125 3.679688 9.589844 3.578125 C 10.648438 1.65625 11.230469 0.390625 11.320312 0.207031 C 11.683594 0.710938 12.175781 1.175781 12.699219 1.699219 Z M 12.699219 1.699219 " fill-opacity="1" fill-rule="nonzero"/></g></g></g></g><path fill="#004aad" d="M 71.375 18.269531 L 69.945312 17.554688 C 70.789062 17.945312 71.304688 18.230469 71.375 18.269531 Z M 71.375 18.269531 " fill-opacity="1" fill-rule="nonzero"/></svg>